<?xml version="1.0" encoding="UTF-8"?>
<svg viewBox="15.5 15.5 224.5 224.5" xmlns="http://www.w3.org/2000/svg">
 <defs>
  <radialGradient id="i" cy="0">
   <stop stop-color="#f06b59" offset="0"/>
   <stop stop-color="#df2227" offset="1"/>
  </radialGradient>
  <radialGradient id="h" cx=".65" cy=".3" r=".76">
   <stop stop-color="#4cb749" offset=".65"/>
   <stop stop-color="#388b41" offset="1"/>
  </radialGradient>
  <radialGradient id="j" cx=".36" cy=".25" r=".8">
   <stop stop-color="#FCD209" offset=".6"/>
   <stop stop-color="#f7c616" offset=".7"/>
   <stop stop-color="#bc821e" offset="1"/>
  </radialGradient>
  <radialGradient id="g" cy="0" r="1">
   <stop stop-color="#7FB3DF" offset=".1"/>
   <stop stop-color="#0F5B94" offset=".9"/>
  </radialGradient>
  <radialGradient id="f" cy="0" r="1">
   <stop stop-color="#F6F0EE" offset="0"/>
   <stop stop-color="#ddd" offset="1"/>
  </radialGradient>
 </defs>
 <path d="m198 148a70 70 0 0 0 -140 0h20a50 50 0 0 1 100 0" fill-opacity=".1"/>
 <circle cx="127.5" cy="127.6" r="45" fill="url(#g)" stroke="url(#f)" stroke-width="9"/>
 <path d="m228 78a112 112 0 0 0 -193 -13l45 78a50 50 0 0 1 47 -65" fill="url(#i)"/>
 <path d="m35 65a112 112 0 0 0 84 174l47-80a50 50 0 0 1 -86 -16" fill="url(#h)"/>
 <path d="m119 239a112 112 0 0 0 109 -161h-101a50 50 0 0 1 39 81" fill="url(#j)"/>
 <path d="m35 65l45 78a50 50 0 0 1 2 -34l-45-47" opacity=".075"/>
 <path d="m119 239l47-80a50 50 0 0 1 -29 17l-20 63" opacity=".05"/>
 <path d="m228 78h-101a50 50 0 0 1 39 19l64-16" opacity=".05"/>
</svg>
